<?xml version="1.0" ?>
<svg xmlns="http://www.w3.org/2000/svg" width="1239.2mm" height="1239.2mm" viewBox="-10 -10 1239.2 1239.2">
  <defs>
    <clipPath id="squareClip">
      <rect x="0" y="0" width="1219.2" height="1219.2"/>
    </clipPath>
  </defs>
  <g clip-path="url(#squareClip)" stroke="#000" fill="none" stroke-width="0.6">
    <polygon points="-160.00,-277.13 -240.00,-138.56 -400.00,-138.56 -480.00,-277.13 -400.00,-415.69 -240.00,-415.69"/>
    <polygon points="-160.00,0.00 -240.00,138.56 -400.00,138.56 -480.00,0.00 -400.00,-138.56 -240.00,-138.56"/>
    <polygon points="-160.00,277.13 -240.00,415.69 -400.00,415.69 -480.00,277.13 -400.00,138.56 -240.00,138.56"/>
    <polygon points="-160.00,554.26 -240.00,692.82 -400.00,692.82 -480.00,554.26 -400.00,415.69 -240.00,415.69"/>
    <polygon points="-160.00,831.38 -240.00,969.95 -400.00,969.95 -480.00,831.38 -400.00,692.82 -240.00,692.82"/>
    <polygon points="-160.00,1108.51 -240.00,1247.08 -400.00,1247.08 -480.00,1108.51 -400.00,969.95 -240.00,969.95"/>
    <polygon points="-160.00,1385.64 -240.00,1524.20 -400.00,1524.20 -480.00,1385.64 -400.00,1247.08 -240.00,1247.08"/>
    <polygon points="80.00,-138.56 0.00,0.00 -160.00,0.00 -240.00,-138.56 -160.00,-277.13 0.00,-277.13"/>
    <polygon points="80.00,138.56 0.00,277.13 -160.00,277.13 -240.00,138.56 -160.00,0.00 0.00,0.00"/>
    <polygon points="80.00,415.69 0.00,554.26 -160.00,554.26 -240.00,415.69 -160.00,277.13 0.00,277.13"/>
    <polygon points="80.00,692.82 0.00,831.38 -160.00,831.38 -240.00,692.82 -160.00,554.26 0.00,554.26"/>
    <polygon points="80.00,969.95 0.00,1108.51 -160.00,1108.51 -240.00,969.95 -160.00,831.38 0.00,831.38"/>
    <polygon points="80.00,1247.08 0.00,1385.64 -160.00,1385.64 -240.00,1247.08 -160.00,1108.51 0.00,1108.51"/>
    <polygon points="320.00,-277.13 240.00,-138.56 80.00,-138.56 0.00,-277.13 80.00,-415.69 240.00,-415.69"/>
    <polygon points="320.00,0.00 240.00,138.56 80.00,138.56 0.00,0.00 80.00,-138.56 240.00,-138.56"/>
    <polygon points="320.00,277.13 240.00,415.69 80.00,415.69 0.00,277.13 80.00,138.56 240.00,138.56"/>
    <polygon points="320.00,554.26 240.00,692.82 80.00,692.82 0.00,554.26 80.00,415.69 240.00,415.69"/>
    <polygon points="320.00,831.38 240.00,969.95 80.00,969.95 0.00,831.38 80.00,692.82 240.00,692.82"/>
    <polygon points="320.00,1108.51 240.00,1247.08 80.00,1247.08 0.00,1108.51 80.00,969.95 240.00,969.95"/>
    <polygon points="320.00,1385.64 240.00,1524.20 80.00,1524.20 0.00,1385.64 80.00,1247.08 240.00,1247.08"/>
    <polygon points="560.00,-138.56 480.00,0.00 320.00,0.00 240.00,-138.56 320.00,-277.13 480.00,-277.13"/>
    <polygon points="560.00,138.56 480.00,277.13 320.00,277.13 240.00,138.56 320.00,0.00 480.00,0.00"/>
    <polygon points="560.00,415.69 480.00,554.26 320.00,554.26 240.00,415.69 320.00,277.13 480.00,277.13"/>
    <polygon points="560.00,692.82 480.00,831.38 320.00,831.38 240.00,692.82 320.00,554.26 480.00,554.26"/>
    <polygon points="560.00,969.95 480.00,1108.51 320.00,1108.51 240.00,969.95 320.00,831.38 480.00,831.38"/>
    <polygon points="560.00,1247.08 480.00,1385.64 320.00,1385.64 240.00,1247.08 320.00,1108.51 480.00,1108.51"/>
    <polygon points="800.00,-277.13 720.00,-138.56 560.00,-138.56 480.00,-277.13 560.00,-415.69 720.00,-415.69"/>
    <polygon points="800.00,0.00 720.00,138.56 560.00,138.56 480.00,0.00 560.00,-138.56 720.00,-138.56"/>
    <polygon points="800.00,277.13 720.00,415.69 560.00,415.69 480.00,277.13 560.00,138.56 720.00,138.56"/>
    <polygon points="800.00,554.26 720.00,692.82 560.00,692.82 480.00,554.26 560.00,415.69 720.00,415.69"/>
    <polygon points="800.00,831.38 720.00,969.95 560.00,969.95 480.00,831.38 560.00,692.82 720.00,692.82"/>
    <polygon points="800.00,1108.51 720.00,1247.08 560.00,1247.08 480.00,1108.51 560.00,969.95 720.00,969.95"/>
    <polygon points="800.00,1385.64 720.00,1524.20 560.00,1524.20 480.00,1385.64 560.00,1247.08 720.00,1247.08"/>
    <polygon points="1040.00,-138.56 960.00,0.00 800.00,0.00 720.00,-138.56 800.00,-277.13 960.00,-277.13"/>
    <polygon points="1040.00,138.56 960.00,277.13 800.00,277.13 720.00,138.56 800.00,0.00 960.00,0.00"/>
    <polygon points="1040.00,415.69 960.00,554.26 800.00,554.26 720.00,415.69 800.00,277.13 960.00,277.13"/>
    <polygon points="1040.00,692.82 960.00,831.38 800.00,831.38 720.00,692.82 800.00,554.26 960.00,554.26"/>
    <polygon points="1040.00,969.95 960.00,1108.51 800.00,1108.51 720.00,969.95 800.00,831.38 960.00,831.38"/>
    <polygon points="1040.00,1247.08 960.00,1385.64 800.00,1385.64 720.00,1247.08 800.00,1108.51 960.00,1108.51"/>
    <polygon points="1280.00,-277.13 1200.00,-138.56 1040.00,-138.56 960.00,-277.13 1040.00,-415.69 1200.00,-415.69"/>
    <polygon points="1280.00,0.00 1200.00,138.56 1040.00,138.56 960.00,0.00 1040.00,-138.56 1200.00,-138.56"/>
    <polygon points="1280.00,277.13 1200.00,415.69 1040.00,415.69 960.00,277.13 1040.00,138.56 1200.00,138.56"/>
    <polygon points="1280.00,554.26 1200.00,692.82 1040.00,692.82 960.00,554.26 1040.00,415.69 1200.00,415.69"/>
    <polygon points="1280.00,831.38 1200.00,969.95 1040.00,969.95 960.00,831.38 1040.00,692.82 1200.00,692.82"/>
    <polygon points="1280.00,1108.51 1200.00,1247.08 1040.00,1247.08 960.00,1108.51 1040.00,969.95 1200.00,969.95"/>
    <polygon points="1280.00,1385.64 1200.00,1524.20 1040.00,1524.20 960.00,1385.64 1040.00,1247.08 1200.00,1247.08"/>
    <polygon points="1520.00,-138.56 1440.00,0.00 1280.00,0.00 1200.00,-138.56 1280.00,-277.13 1440.00,-277.13"/>
    <polygon points="1520.00,138.56 1440.00,277.13 1280.00,277.13 1200.00,138.56 1280.00,0.00 1440.00,0.00"/>
    <polygon points="1520.00,415.69 1440.00,554.26 1280.00,554.26 1200.00,415.69 1280.00,277.13 1440.00,277.13"/>
    <polygon points="1520.00,692.82 1440.00,831.38 1280.00,831.38 1200.00,692.82 1280.00,554.26 1440.00,554.26"/>
    <polygon points="1520.00,969.95 1440.00,1108.51 1280.00,1108.51 1200.00,969.95 1280.00,831.38 1440.00,831.38"/>
    <polygon points="1520.00,1247.08 1440.00,1385.64 1280.00,1385.64 1200.00,1247.08 1280.00,1108.51 1440.00,1108.51"/>
  </g>
  <rect x="0" y="0" width="1219.2" height="1219.2" fill="none" stroke="#000" stroke-width="2"/>
  <text x="609.6" y="-5.0" text-anchor="middle" font-size="10" font-family="monospace">Hex grid: side=16 cm | Square: 4 ft x 4 ft (121.92 cm)</text>
</svg>
